<svg width="1627" height="332" viewBox="0 0 1627 332" fill="none" xmlns="http://www.w3.org/2000/svg">
<path d="M539.951 109C552.618 109 563.927 111.7 573.88 117.1C583.925 122.594 592.113 130.947 597.404 141.1C603.137 151.7 606.004 164.5 606.004 179.5V277H571.925V184.6C571.925 169.8 568.205 158.45 560.766 150.55C553.327 142.65 543.171 138.7 530.299 138.7C517.432 138.7 507.229 142.65 499.688 150.55C492.147 158.45 488.377 169.8 488.378 184.6V277H453.999V55H488.38V130.9C494.356 123.793 501.961 118.235 510.547 114.7C519.861 110.828 529.865 108.889 539.951 109Z" fill="#F9FBFF"/>
<path d="M631.999 194.253C631.999 177.72 635.432 163.08 642.299 150.334C648.744 138.033 658.455 127.747 670.366 120.606C682.231 113.529 695.817 109.859 709.632 110C722.571 110 733.867 112.54 743.522 117.619C752.534 122.168 760.434 128.646 766.662 136.591V112.691H800.999V277.311H766.662V252.811C760.889 260.579 753.027 267.052 743.074 272.231C733.121 277.41 721.775 279.999 709.034 280C695.323 280.119 681.861 276.337 670.218 269.095C658.319 261.658 648.668 251.123 642.299 238.62C635.432 225.574 631.999 210.785 631.999 194.253ZM766.662 194.853C766.662 183.5 764.323 173.64 759.645 165.275C755.386 157.343 749.035 150.73 741.282 146.154C733.857 141.809 725.401 139.539 716.798 139.581C708.214 139.534 699.769 141.748 692.313 146C684.573 150.46 678.218 156.974 673.95 164.822C669.272 173.089 666.933 182.898 666.933 194.251C666.933 205.604 669.272 215.563 673.95 224.128C678.194 232.237 684.602 239.012 692.463 243.7C699.819 248.097 708.229 250.42 716.799 250.422C725.402 250.464 733.858 248.194 741.283 243.849C749.064 239.242 755.419 232.572 759.646 224.578C764.323 216.113 766.662 206.204 766.662 194.851V194.853Z" fill="#F9FBFF"/>
<path d="M895.843 280C882.872 280 871.249 277.66 860.972 272.979C850.695 268.298 842.564 261.925 836.577 253.858C830.68 246.044 827.336 236.602 826.999 226.819H862.319C862.919 233.79 866.261 239.616 872.346 244.297C878.431 248.978 886.064 251.318 895.246 251.318C904.824 251.318 912.257 249.476 917.546 245.791C922.835 242.106 925.479 237.376 925.478 231.599C925.478 225.424 922.535 220.843 916.648 217.856C910.761 214.869 901.432 211.583 888.659 208C878.397 205.309 868.303 202.017 858.428 198.141C850.626 194.938 843.7 189.919 838.228 183.501C832.541 176.928 829.697 168.264 829.697 157.508C829.658 148.866 832.384 140.438 837.479 133.457C842.667 126.187 850.1 120.461 859.779 116.278C869.458 112.095 880.581 110.003 893.149 110C911.906 110 927.022 114.731 938.496 124.192C949.97 133.653 956.104 146.55 956.899 162.882H922.777C922.177 155.513 919.184 149.637 913.797 145.255C908.41 140.873 901.127 138.682 891.947 138.682C882.968 138.682 876.083 140.375 871.294 143.761C866.505 147.147 864.11 151.629 864.11 157.206C864.072 159.284 864.48 161.345 865.306 163.252C866.132 165.159 867.357 166.867 868.899 168.26C872.279 171.361 876.249 173.749 880.572 175.281C885.161 176.974 891.946 179.116 900.926 181.705C910.968 184.249 920.82 187.493 930.409 191.415C938.054 194.676 944.858 199.63 950.309 205.905C955.896 212.279 958.79 220.746 958.989 231.305C959.109 240.283 956.385 249.069 951.207 256.405C946.019 263.774 938.686 269.551 929.207 273.734C919.728 277.917 908.607 280.006 895.843 280Z" fill="#F9FBFF"/>
<path d="M1070.95 109C1083.62 109 1094.93 111.7 1104.88 117.1C1114.93 122.594 1123.11 130.947 1128.4 141.1C1134.14 151.7 1137 164.5 1137 179.5V277H1102.92V184.6C1102.92 169.8 1099.2 158.45 1091.76 150.55C1084.32 142.65 1074.17 138.7 1061.3 138.7C1048.43 138.7 1038.23 142.65 1030.69 150.55C1023.15 158.45 1019.38 169.8 1019.38 184.6V277H984.999V55H1019.38V130.9C1025.36 123.793 1032.96 118.235 1041.55 114.7C1050.86 110.828 1060.86 108.889 1070.95 109Z" fill="#F9FBFF"/>
<path d="M1197.1 137.047C1202.88 129.072 1210.81 122.542 1220.88 117.458C1231.33 112.286 1242.87 109.672 1254.53 109.832C1268.4 109.649 1282.05 113.27 1294.01 120.3C1305.9 127.406 1315.54 137.72 1321.83 150.057C1328.61 162.917 1332 177.621 1332 194.169C1332 210.717 1328.61 225.52 1321.83 238.579C1315.51 251.137 1305.83 261.695 1293.86 269.079C1282.04 276.347 1268.41 280.132 1254.53 280C1241.77 280 1230.45 277.508 1220.58 272.523C1210.71 267.538 1202.88 261.158 1197.1 253.383V277.308H1163V55H1197.1V137.047ZM1297.3 194.168C1297.3 182.803 1294.96 172.984 1290.27 164.71C1285.97 156.823 1279.54 150.297 1271.73 145.869C1264.2 141.621 1255.69 139.405 1247.05 139.439C1238.48 139.436 1230.07 141.706 1222.67 146.018C1214.84 150.562 1208.42 157.187 1204.13 165.158C1199.44 173.533 1197.1 183.402 1197.1 194.766C1197.1 206.13 1199.44 216.049 1204.13 224.523C1208.39 232.557 1214.81 239.239 1222.67 243.813C1230.07 248.125 1238.49 250.395 1247.05 250.392C1255.73 250.417 1264.26 248.092 1271.73 243.663C1279.6 238.972 1286.02 232.192 1290.27 224.074C1294.96 215.501 1297.3 205.533 1297.3 194.168Z" fill="#F9FBFF"/>
<path d="M1433 280C1417.36 280 1403.23 276.465 1390.6 269.394C1378.07 262.424 1367.75 252.071 1360.83 239.517C1353.61 226.67 1350 211.781 1350 194.851C1350 178.118 1353.71 163.279 1361.13 150.334C1368.22 137.703 1378.75 127.344 1391.5 120.457C1404.33 113.486 1418.66 110 1434.5 110C1450.34 110 1464.67 113.486 1477.5 120.457C1490.24 127.344 1500.78 137.704 1507.87 150.334C1515.29 163.281 1519 178.12 1519 194.851C1519 211.582 1515.19 226.421 1507.57 239.367C1500.2 252.08 1489.42 262.479 1476.45 269.394C1463.09 276.522 1448.14 280.169 1433 280ZM1433 250.422C1441.67 250.461 1450.2 248.302 1457.81 244.148C1465.72 239.771 1472.24 233.245 1476.6 225.325C1481.41 216.96 1483.82 206.801 1483.82 194.85C1483.82 182.899 1481.51 172.79 1476.9 164.525C1472.7 156.674 1466.33 150.193 1458.56 145.852C1451.01 141.687 1442.52 139.527 1433.9 139.578C1425.32 139.515 1416.88 141.676 1409.39 145.852C1401.73 150.188 1395.5 156.681 1391.5 164.525C1387.09 172.792 1384.88 182.9 1384.88 194.85C1384.88 212.577 1389.44 226.271 1398.57 235.931C1407.69 245.591 1419.16 250.421 1433 250.422Z" fill="#F9FBFF"/>
<path d="M1586.88 139.847V231.182C1586.88 237.371 1588.33 241.813 1591.23 244.508C1594.12 247.203 1599.06 248.551 1606.04 248.551H1627V277H1600.06C1584.69 277 1572.91 273.406 1564.73 266.219C1556.55 259.032 1552.46 247.353 1552.46 231.183V139.848H1533V112H1552.46V55H1586.89V112H1627V139.85L1586.88 139.847Z" fill="#F9FBFF"/>
<path d="M186.421 332H135.579C133.324 332.001 131.327 331.413 129.369 330.295C127.41 329.178 125.778 327.568 124.634 325.627L95.1658 276.667H226.834L197.378 325.627C196.234 327.568 194.602 329.178 192.644 330.295C190.685 331.413 188.677 332.001 186.421 332ZM95.1658 276.667H37.8056C35.5499 276.667 33.4798 276.073 31.5214 274.955C29.563 273.838 27.8696 272.098 26.7253 270.157L1.78928 227.889C0.617802 225.902 0 223.639 0 221.333C0 219.028 0.617802 216.764 1.78928 214.778L24.1174 177.392C26.1659 173.915 26.7246 170.035 26.7246 166C26.7246 161.965 25.84 158.085 23.7914 154.608L1.62955 117.176C0.458069 115.19 0 112.972 0 110.667C0 108.361 0.617802 106.098 1.78928 104.111L26.7873 61.7064C27.9315 59.7652 29.5635 58.156 31.5218 57.0382C33.4801 55.9204 35.55 55.3327 37.8056 55.3333H95.1658L37.1538 154.608C35.124 158.074 33.8947 161.985 33.8947 166C33.8947 170.015 35.124 173.926 37.1538 177.392L95.1658 276.667ZM226.834 276.667L284.846 177.392C286.875 173.926 288.105 170.015 288.105 166C288.105 161.985 286.875 158.074 284.846 154.608L226.834 55.3333H284.046C286.302 55.3326 288.519 55.9202 290.477 57.038C292.436 58.1558 294.068 59.7651 295.212 61.7064L320.21 104.111C321.382 106.098 321.999 108.361 321.999 110.667C321.999 112.972 321.542 115.19 320.37 117.176L297.883 154.608C295.834 158.085 295.275 161.965 295.275 166C295.275 170.035 295.833 173.915 297.882 177.392L320.211 214.771C321.382 216.758 322 219.021 322 221.327C322 223.632 321.382 225.896 320.211 227.882L295.275 270.157C294.131 272.098 292.436 273.831 290.478 274.949C288.52 276.067 286.45 276.667 284.194 276.667H226.834ZM95.1658 55.3333L124.498 6.5098C125.642 4.56929 127.404 2.82399 129.361 1.70628C131.319 0.588566 133.535 0.000433608 135.791 7.15685e-07H186.197C188.453 -0.000748573 190.67 0.586866 192.628 1.70468C194.586 2.82249 196.357 4.56843 197.502 6.5098L226.834 55.3333C226.834 55.3333 145.817 55.3333 95.1658 55.3333Z" fill="#1039FF"/>
<path d="M60.0721 152.18C84.7403 128.718 120.817 113.922 161.003 113.922C201.19 113.922 237.266 128.718 261.931 152.18C263.816 153.956 265.318 156.098 266.344 158.474C267.371 160.851 267.9 163.412 267.9 166C267.9 168.588 267.371 171.149 266.344 173.526C265.318 175.902 263.816 178.044 261.931 179.82C237.266 203.282 201.187 218.078 161.003 218.078C120.82 218.078 84.7402 203.282 60.0741 179.82C58.189 178.044 56.6872 175.902 55.6608 173.526C54.6343 171.149 54.1048 168.588 54.1048 166C54.1048 163.412 54.6343 160.851 55.6608 158.474C56.6872 156.098 58.189 153.956 60.0741 152.18H60.0721ZM161.003 205.71C168.867 205.71 176.555 203.381 183.093 199.018C189.632 194.654 194.728 188.452 197.738 181.196C200.747 173.94 201.535 165.956 200 158.253C198.466 150.55 194.679 143.475 189.119 137.921C183.558 132.367 176.473 128.585 168.76 127.053C161.047 125.521 153.053 126.307 145.787 129.313C138.522 132.319 132.312 137.408 127.943 143.938C123.574 150.469 121.242 158.146 121.242 166C121.242 176.532 125.431 186.632 132.888 194.079C140.345 201.526 150.458 205.71 161.003 205.71Z" fill="#F9FBFF"/>
</svg>
